#N canvas -8 -8 1920 997 12;
#X obj 546 318 f;
#X obj 546 344 t f b;
#X obj 546 370 expr $f1 + $f2;
#X obj 641 344 f;
#X obj 659 318 expr if($f1>0 \, $f1 \, 1);
#X obj 829 338 until;
#X obj 829 365 f;
#X obj 857 365 + 1;
#X msg 883 332 0;
#X obj 829 311 t f b;
#X text 26 49 # of iterations to calculate to table;
#X obj 829 391 t b f;
#X obj 546 396 t f f;
#X msg 564 262 0;
#X obj 564 236 t b f f;
#X obj 279 321 f;
#X obj 309 321 + 1;
#X obj 279 347 %;
#X obj 297 48 f \$1;
#X obj 674 27 loadbang;
#X obj 759 417 tabwrite \$0-fib;
#X obj 279 373 tabread \$0-fib;
#X obj 709 110 symbol \$0-fib;
#X obj 656 158 pack f s;
#X msg 759 232 \; \$2 resize \$1;
#X obj 813 164 table \$0-fib;
#X obj 279 399 outlet;
#X obj 141 212 inlet;
#X obj 297 22 inlet;
#X text 1143 248 this abstraction runs through the fibonacci sequence.
bang the first inlet to output the function. the creation argument
defines the number of iterations you wish for the abstraction to run
through (before starting over).;
#X connect 0 0 1 0;
#X connect 0 0 4 0;
#X connect 1 0 2 0;
#X connect 1 1 3 0;
#X connect 2 0 12 0;
#X connect 3 0 2 1;
#X connect 4 0 3 1;
#X connect 5 0 6 0;
#X connect 6 0 7 0;
#X connect 6 0 11 0;
#X connect 7 0 6 1;
#X connect 8 0 6 1;
#X connect 9 0 5 0;
#X connect 9 1 8 0;
#X connect 11 0 0 0;
#X connect 11 1 20 1;
#X connect 12 0 0 1;
#X connect 12 1 20 0;
#X connect 13 0 0 1;
#X connect 14 0 13 0;
#X connect 14 1 9 0;
#X connect 14 2 23 0;
#X connect 15 0 16 0;
#X connect 15 0 17 0;
#X connect 16 0 15 1;
#X connect 17 0 21 0;
#X connect 18 0 17 1;
#X connect 18 0 14 0;
#X connect 19 0 22 0;
#X connect 19 0 18 0;
#X connect 21 0 26 0;
#X connect 22 0 23 1;
#X connect 23 0 24 0;
#X connect 27 0 15 0;
#X connect 28 0 18 0;
